<mxfile host="Electron" agent="Mozilla/5.0 (Windows NT 10.0; Win64; x64) AppleWebKit/537.36 (KHTML, like Gecko) draw.io/24.7.17 Chrome/128.0.6613.36 Electron/32.0.1 Safari/537.36" version="24.7.17">
  <diagram id="C5RBs43oDa-KdzZeNtuy" name="Page-1">
    <mxGraphModel dx="1418" dy="673" grid="1" gridSize="10" guides="1" tooltips="1" connect="1" arrows="1" fold="1" page="1" pageScale="1" pageWidth="827" pageHeight="1169" background="#FFFFFF" math="0" shadow="0">
      <root>
        <mxCell id="WIyWlLk6GJQsqaUBKTNV-0" />
        <mxCell id="WIyWlLk6GJQsqaUBKTNV-1" parent="WIyWlLk6GJQsqaUBKTNV-0" />
        <mxCell id="t6wVsfiCI3xdT3-VpRgb-0" value="" style="edgeStyle=orthogonalEdgeStyle;rounded=0;orthogonalLoop=1;jettySize=auto;html=1;" parent="WIyWlLk6GJQsqaUBKTNV-1" source="hf3equ0I7n4AxzsmKPAf-1" target="hf3equ0I7n4AxzsmKPAf-2" edge="1">
          <mxGeometry relative="1" as="geometry" />
        </mxCell>
        <mxCell id="hf3equ0I7n4AxzsmKPAf-1" value="Start" style="strokeWidth=2;html=1;shape=mxgraph.flowchart.terminator;whiteSpace=wrap;" parent="WIyWlLk6GJQsqaUBKTNV-1" vertex="1">
          <mxGeometry x="280" y="30" width="100" height="60" as="geometry" />
        </mxCell>
        <mxCell id="t6wVsfiCI3xdT3-VpRgb-1" value="" style="edgeStyle=orthogonalEdgeStyle;rounded=0;orthogonalLoop=1;jettySize=auto;html=1;" parent="WIyWlLk6GJQsqaUBKTNV-1" source="hf3equ0I7n4AxzsmKPAf-2" target="hf3equ0I7n4AxzsmKPAf-4" edge="1">
          <mxGeometry relative="1" as="geometry" />
        </mxCell>
        <mxCell id="hf3equ0I7n4AxzsmKPAf-2" value="" style="verticalLabelPosition=bottom;verticalAlign=top;html=1;shape=hexagon;perimeter=hexagonPerimeter2;arcSize=6;size=0.25;strokeWidth=2;" parent="WIyWlLk6GJQsqaUBKTNV-1" vertex="1">
          <mxGeometry x="250" y="108" width="160" height="80" as="geometry" />
        </mxCell>
        <mxCell id="hf3equ0I7n4AxzsmKPAf-6" value="" style="edgeStyle=orthogonalEdgeStyle;rounded=0;orthogonalLoop=1;jettySize=auto;html=1;" parent="WIyWlLk6GJQsqaUBKTNV-1" source="hf3equ0I7n4AxzsmKPAf-4" target="hf3equ0I7n4AxzsmKPAf-5" edge="1">
          <mxGeometry relative="1" as="geometry">
            <Array as="points">
              <mxPoint x="327" y="310" />
              <mxPoint x="327" y="310" />
            </Array>
          </mxGeometry>
        </mxCell>
        <mxCell id="hf3equ0I7n4AxzsmKPAf-4" value="" style="shape=parallelogram;html=1;strokeWidth=2;perimeter=parallelogramPerimeter;whiteSpace=wrap;rounded=1;arcSize=12;size=0.23;" parent="WIyWlLk6GJQsqaUBKTNV-1" vertex="1">
          <mxGeometry x="269" y="221" width="120" height="80" as="geometry" />
        </mxCell>
        <mxCell id="hf3equ0I7n4AxzsmKPAf-14" value="" style="edgeStyle=orthogonalEdgeStyle;rounded=0;orthogonalLoop=1;jettySize=auto;html=1;" parent="WIyWlLk6GJQsqaUBKTNV-1" source="hf3equ0I7n4AxzsmKPAf-5" target="hf3equ0I7n4AxzsmKPAf-13" edge="1">
          <mxGeometry relative="1" as="geometry" />
        </mxCell>
        <mxCell id="t6wVsfiCI3xdT3-VpRgb-2" value="" style="edgeStyle=orthogonalEdgeStyle;rounded=0;orthogonalLoop=1;jettySize=auto;html=1;" parent="WIyWlLk6GJQsqaUBKTNV-1" source="hf3equ0I7n4AxzsmKPAf-5" target="hf3equ0I7n4AxzsmKPAf-9" edge="1">
          <mxGeometry relative="1" as="geometry" />
        </mxCell>
        <mxCell id="hf3equ0I7n4AxzsmKPAf-5" value="" style="rhombus;whiteSpace=wrap;html=1;strokeWidth=2;rounded=1;arcSize=12;" parent="WIyWlLk6GJQsqaUBKTNV-1" vertex="1">
          <mxGeometry x="257" y="330" width="140" height="130" as="geometry" />
        </mxCell>
        <mxCell id="hf3equ0I7n4AxzsmKPAf-16" value="" style="edgeStyle=orthogonalEdgeStyle;rounded=0;orthogonalLoop=1;jettySize=auto;html=1;" parent="WIyWlLk6GJQsqaUBKTNV-1" source="hf3equ0I7n4AxzsmKPAf-9" target="hf3equ0I7n4AxzsmKPAf-15" edge="1">
          <mxGeometry relative="1" as="geometry" />
        </mxCell>
        <mxCell id="t6wVsfiCI3xdT3-VpRgb-3" value="" style="edgeStyle=orthogonalEdgeStyle;rounded=0;orthogonalLoop=1;jettySize=auto;html=1;" parent="WIyWlLk6GJQsqaUBKTNV-1" source="hf3equ0I7n4AxzsmKPAf-9" target="hf3equ0I7n4AxzsmKPAf-10" edge="1">
          <mxGeometry relative="1" as="geometry" />
        </mxCell>
        <mxCell id="hf3equ0I7n4AxzsmKPAf-9" value="" style="rhombus;whiteSpace=wrap;html=1;strokeWidth=2;rounded=1;arcSize=12;" parent="WIyWlLk6GJQsqaUBKTNV-1" vertex="1">
          <mxGeometry x="257" y="480" width="140" height="130" as="geometry" />
        </mxCell>
        <mxCell id="hf3equ0I7n4AxzsmKPAf-18" value="" style="edgeStyle=orthogonalEdgeStyle;rounded=0;orthogonalLoop=1;jettySize=auto;html=1;" parent="WIyWlLk6GJQsqaUBKTNV-1" source="hf3equ0I7n4AxzsmKPAf-10" target="hf3equ0I7n4AxzsmKPAf-17" edge="1">
          <mxGeometry relative="1" as="geometry" />
        </mxCell>
        <mxCell id="t6wVsfiCI3xdT3-VpRgb-4" value="" style="edgeStyle=orthogonalEdgeStyle;rounded=0;orthogonalLoop=1;jettySize=auto;html=1;" parent="WIyWlLk6GJQsqaUBKTNV-1" source="hf3equ0I7n4AxzsmKPAf-10" target="hf3equ0I7n4AxzsmKPAf-11" edge="1">
          <mxGeometry relative="1" as="geometry" />
        </mxCell>
        <mxCell id="hf3equ0I7n4AxzsmKPAf-10" value="" style="rhombus;whiteSpace=wrap;html=1;strokeWidth=2;rounded=1;arcSize=12;" parent="WIyWlLk6GJQsqaUBKTNV-1" vertex="1">
          <mxGeometry x="257" y="633" width="140" height="130" as="geometry" />
        </mxCell>
        <mxCell id="hf3equ0I7n4AxzsmKPAf-20" value="" style="edgeStyle=orthogonalEdgeStyle;rounded=0;orthogonalLoop=1;jettySize=auto;html=1;" parent="WIyWlLk6GJQsqaUBKTNV-1" edge="1">
          <mxGeometry relative="1" as="geometry">
            <mxPoint x="397.0000000000001" y="855.47" as="sourcePoint" />
            <mxPoint x="487" y="854.47" as="targetPoint" />
            <Array as="points">
              <mxPoint x="392" y="855.22" />
              <mxPoint x="392" y="854.22" />
            </Array>
          </mxGeometry>
        </mxCell>
        <mxCell id="t6wVsfiCI3xdT3-VpRgb-5" value="" style="edgeStyle=orthogonalEdgeStyle;rounded=0;orthogonalLoop=1;jettySize=auto;html=1;" parent="WIyWlLk6GJQsqaUBKTNV-1" source="hf3equ0I7n4AxzsmKPAf-11" target="hf3equ0I7n4AxzsmKPAf-12" edge="1">
          <mxGeometry relative="1" as="geometry" />
        </mxCell>
        <mxCell id="hf3equ0I7n4AxzsmKPAf-11" value="" style="rhombus;whiteSpace=wrap;html=1;strokeWidth=2;rounded=1;arcSize=12;" parent="WIyWlLk6GJQsqaUBKTNV-1" vertex="1">
          <mxGeometry x="257" y="790" width="140" height="130" as="geometry" />
        </mxCell>
        <mxCell id="hf3equ0I7n4AxzsmKPAf-22" value="" style="edgeStyle=orthogonalEdgeStyle;rounded=0;orthogonalLoop=1;jettySize=auto;html=1;" parent="WIyWlLk6GJQsqaUBKTNV-1" source="hf3equ0I7n4AxzsmKPAf-12" target="hf3equ0I7n4AxzsmKPAf-21" edge="1">
          <mxGeometry relative="1" as="geometry" />
        </mxCell>
        <mxCell id="V1lYzwCrkhVgtF4k7L0C-1" value="" style="edgeStyle=orthogonalEdgeStyle;rounded=0;orthogonalLoop=1;jettySize=auto;html=1;" parent="WIyWlLk6GJQsqaUBKTNV-1" source="hf3equ0I7n4AxzsmKPAf-12" target="V1lYzwCrkhVgtF4k7L0C-0" edge="1">
          <mxGeometry relative="1" as="geometry" />
        </mxCell>
        <mxCell id="hf3equ0I7n4AxzsmKPAf-12" value="" style="rhombus;whiteSpace=wrap;html=1;strokeWidth=2;rounded=1;arcSize=12;" parent="WIyWlLk6GJQsqaUBKTNV-1" vertex="1">
          <mxGeometry x="257" y="940" width="140" height="130" as="geometry" />
        </mxCell>
        <mxCell id="t6wVsfiCI3xdT3-VpRgb-9" value="" style="edgeStyle=orthogonalEdgeStyle;rounded=0;orthogonalLoop=1;jettySize=auto;html=1;endArrow=none;endFill=0;" parent="WIyWlLk6GJQsqaUBKTNV-1" source="hf3equ0I7n4AxzsmKPAf-13" edge="1">
          <mxGeometry relative="1" as="geometry">
            <mxPoint x="747" y="395" as="targetPoint" />
          </mxGeometry>
        </mxCell>
        <mxCell id="hf3equ0I7n4AxzsmKPAf-13" value="" style="whiteSpace=wrap;html=1;strokeWidth=2;rounded=1;arcSize=12;" parent="WIyWlLk6GJQsqaUBKTNV-1" vertex="1">
          <mxGeometry x="487" y="365" width="120" height="60" as="geometry" />
        </mxCell>
        <mxCell id="t6wVsfiCI3xdT3-VpRgb-17" value="" style="edgeStyle=orthogonalEdgeStyle;rounded=0;orthogonalLoop=1;jettySize=auto;html=1;" parent="WIyWlLk6GJQsqaUBKTNV-1" source="hf3equ0I7n4AxzsmKPAf-15" edge="1">
          <mxGeometry relative="1" as="geometry">
            <mxPoint x="747" y="545" as="targetPoint" />
          </mxGeometry>
        </mxCell>
        <mxCell id="hf3equ0I7n4AxzsmKPAf-15" value="" style="whiteSpace=wrap;html=1;strokeWidth=2;rounded=1;arcSize=12;" parent="WIyWlLk6GJQsqaUBKTNV-1" vertex="1">
          <mxGeometry x="487" y="515" width="120" height="60" as="geometry" />
        </mxCell>
        <mxCell id="t6wVsfiCI3xdT3-VpRgb-19" value="" style="edgeStyle=orthogonalEdgeStyle;rounded=0;orthogonalLoop=1;jettySize=auto;html=1;" parent="WIyWlLk6GJQsqaUBKTNV-1" source="hf3equ0I7n4AxzsmKPAf-17" edge="1">
          <mxGeometry relative="1" as="geometry">
            <mxPoint x="747" y="698" as="targetPoint" />
          </mxGeometry>
        </mxCell>
        <mxCell id="hf3equ0I7n4AxzsmKPAf-17" value="" style="whiteSpace=wrap;html=1;strokeWidth=2;rounded=1;arcSize=12;" parent="WIyWlLk6GJQsqaUBKTNV-1" vertex="1">
          <mxGeometry x="487" y="668" width="120" height="60" as="geometry" />
        </mxCell>
        <mxCell id="t6wVsfiCI3xdT3-VpRgb-21" value="" style="edgeStyle=orthogonalEdgeStyle;rounded=0;orthogonalLoop=1;jettySize=auto;html=1;" parent="WIyWlLk6GJQsqaUBKTNV-1" source="hf3equ0I7n4AxzsmKPAf-19" edge="1">
          <mxGeometry relative="1" as="geometry">
            <mxPoint x="747" y="854" as="targetPoint" />
          </mxGeometry>
        </mxCell>
        <mxCell id="hf3equ0I7n4AxzsmKPAf-19" value="" style="whiteSpace=wrap;html=1;strokeWidth=2;rounded=1;arcSize=12;" parent="WIyWlLk6GJQsqaUBKTNV-1" vertex="1">
          <mxGeometry x="487" y="824" width="120" height="60" as="geometry" />
        </mxCell>
        <mxCell id="t6wVsfiCI3xdT3-VpRgb-23" value="" style="edgeStyle=orthogonalEdgeStyle;rounded=0;orthogonalLoop=1;jettySize=auto;html=1;" parent="WIyWlLk6GJQsqaUBKTNV-1" source="hf3equ0I7n4AxzsmKPAf-21" edge="1">
          <mxGeometry relative="1" as="geometry">
            <mxPoint x="747" y="1004" as="targetPoint" />
          </mxGeometry>
        </mxCell>
        <mxCell id="hf3equ0I7n4AxzsmKPAf-21" value="" style="whiteSpace=wrap;html=1;strokeWidth=2;rounded=1;arcSize=12;" parent="WIyWlLk6GJQsqaUBKTNV-1" vertex="1">
          <mxGeometry x="487" y="974" width="120" height="60" as="geometry" />
        </mxCell>
        <mxCell id="hf3equ0I7n4AxzsmKPAf-23" value="End" style="strokeWidth=2;html=1;shape=mxgraph.flowchart.terminator;whiteSpace=wrap;" parent="WIyWlLk6GJQsqaUBKTNV-1" vertex="1">
          <mxGeometry x="277" y="1280" width="100" height="60" as="geometry" />
        </mxCell>
        <mxCell id="t6wVsfiCI3xdT3-VpRgb-11" value="" style="edgeStyle=orthogonalEdgeStyle;rounded=0;orthogonalLoop=1;jettySize=auto;html=1;strokeColor=default;endArrow=none;endFill=0;" parent="WIyWlLk6GJQsqaUBKTNV-1" edge="1">
          <mxGeometry relative="1" as="geometry">
            <mxPoint x="747" y="395" as="sourcePoint" />
            <mxPoint x="747" y="1150" as="targetPoint" />
          </mxGeometry>
        </mxCell>
        <mxCell id="t6wVsfiCI3xdT3-VpRgb-24" value="nilai : &lt;b&gt;int&lt;/b&gt;&lt;div&gt;grade : &lt;b&gt;char&lt;/b&gt;&lt;/div&gt;" style="text;strokeColor=none;align=center;fillColor=none;html=1;verticalAlign=middle;whiteSpace=wrap;rounded=0;" parent="WIyWlLk6GJQsqaUBKTNV-1" vertex="1">
          <mxGeometry x="290" y="133" width="80" height="30" as="geometry" />
        </mxCell>
        <mxCell id="t6wVsfiCI3xdT3-VpRgb-25" value="Input nilai&lt;div&gt;(cin &amp;gt;&amp;gt; nilai)&lt;/div&gt;" style="text;strokeColor=none;align=center;fillColor=none;html=1;verticalAlign=middle;whiteSpace=wrap;rounded=0;" parent="WIyWlLk6GJQsqaUBKTNV-1" vertex="1">
          <mxGeometry x="287" y="246" width="80" height="30" as="geometry" />
        </mxCell>
        <mxCell id="t6wVsfiCI3xdT3-VpRgb-26" value="nilai &amp;gt;= 80&lt;div&gt;&amp;amp;&amp;amp;&lt;/div&gt;&lt;div&gt;nilai &amp;lt;= 100&lt;/div&gt;" style="text;strokeColor=none;align=center;fillColor=none;html=1;verticalAlign=middle;whiteSpace=wrap;rounded=0;" parent="WIyWlLk6GJQsqaUBKTNV-1" vertex="1">
          <mxGeometry x="289" y="380" width="80" height="30" as="geometry" />
        </mxCell>
        <mxCell id="t6wVsfiCI3xdT3-VpRgb-27" value="grade = &#39;A&#39;" style="text;strokeColor=none;align=center;fillColor=none;html=1;verticalAlign=middle;whiteSpace=wrap;rounded=0;" parent="WIyWlLk6GJQsqaUBKTNV-1" vertex="1">
          <mxGeometry x="507" y="380" width="80" height="30" as="geometry" />
        </mxCell>
        <mxCell id="t6wVsfiCI3xdT3-VpRgb-28" value="grade = &#39;B&#39;" style="text;strokeColor=none;align=center;fillColor=none;html=1;verticalAlign=middle;whiteSpace=wrap;rounded=0;" parent="WIyWlLk6GJQsqaUBKTNV-1" vertex="1">
          <mxGeometry x="507" y="530" width="80" height="30" as="geometry" />
        </mxCell>
        <mxCell id="t6wVsfiCI3xdT3-VpRgb-29" value="nilai &amp;gt;= 65&lt;div&gt;&amp;amp;&amp;amp;&lt;/div&gt;&lt;div&gt;nilai &amp;lt;= 79&lt;/div&gt;" style="text;strokeColor=none;align=center;fillColor=none;html=1;verticalAlign=middle;whiteSpace=wrap;rounded=0;" parent="WIyWlLk6GJQsqaUBKTNV-1" vertex="1">
          <mxGeometry x="287" y="530" width="80" height="30" as="geometry" />
        </mxCell>
        <mxCell id="t6wVsfiCI3xdT3-VpRgb-30" value="nilai &amp;gt;= 50&lt;div&gt;&amp;amp;&amp;amp;&lt;/div&gt;&lt;div&gt;nilai &amp;lt;= 64&lt;/div&gt;" style="text;strokeColor=none;align=center;fillColor=none;html=1;verticalAlign=middle;whiteSpace=wrap;rounded=0;" parent="WIyWlLk6GJQsqaUBKTNV-1" vertex="1">
          <mxGeometry x="288" y="683" width="80" height="30" as="geometry" />
        </mxCell>
        <mxCell id="t6wVsfiCI3xdT3-VpRgb-31" value="grade = &#39;C&#39;" style="text;strokeColor=none;align=center;fillColor=none;html=1;verticalAlign=middle;whiteSpace=wrap;rounded=0;" parent="WIyWlLk6GJQsqaUBKTNV-1" vertex="1">
          <mxGeometry x="507" y="683" width="80" height="30" as="geometry" />
        </mxCell>
        <mxCell id="t6wVsfiCI3xdT3-VpRgb-32" value="grade = &#39;D&#39;" style="text;strokeColor=none;align=center;fillColor=none;html=1;verticalAlign=middle;whiteSpace=wrap;rounded=0;" parent="WIyWlLk6GJQsqaUBKTNV-1" vertex="1">
          <mxGeometry x="507" y="839" width="80" height="30" as="geometry" />
        </mxCell>
        <mxCell id="t6wVsfiCI3xdT3-VpRgb-33" value="nilai &amp;gt;= 35&lt;div&gt;&amp;amp;&amp;amp;&lt;/div&gt;&lt;div&gt;nilai &amp;lt;= 49&lt;/div&gt;" style="text;strokeColor=none;align=center;fillColor=none;html=1;verticalAlign=middle;whiteSpace=wrap;rounded=0;" parent="WIyWlLk6GJQsqaUBKTNV-1" vertex="1">
          <mxGeometry x="290" y="839" width="80" height="30" as="geometry" />
        </mxCell>
        <mxCell id="t6wVsfiCI3xdT3-VpRgb-34" value="nilai &amp;gt;= 0&lt;div&gt;&amp;amp;&amp;amp;&lt;/div&gt;&lt;div&gt;nilai &amp;lt;= 34&lt;/div&gt;" style="text;strokeColor=none;align=center;fillColor=none;html=1;verticalAlign=middle;whiteSpace=wrap;rounded=0;" parent="WIyWlLk6GJQsqaUBKTNV-1" vertex="1">
          <mxGeometry x="289" y="990" width="80" height="30" as="geometry" />
        </mxCell>
        <mxCell id="t6wVsfiCI3xdT3-VpRgb-35" value="grade = &#39;E&#39;" style="text;strokeColor=none;align=center;fillColor=none;html=1;verticalAlign=middle;whiteSpace=wrap;rounded=0;" parent="WIyWlLk6GJQsqaUBKTNV-1" vertex="1">
          <mxGeometry x="507" y="989" width="80" height="30" as="geometry" />
        </mxCell>
        <mxCell id="V1lYzwCrkhVgtF4k7L0C-2" value="" style="edgeStyle=orthogonalEdgeStyle;rounded=0;orthogonalLoop=1;jettySize=auto;html=1;" parent="WIyWlLk6GJQsqaUBKTNV-1" source="V1lYzwCrkhVgtF4k7L0C-0" target="hf3equ0I7n4AxzsmKPAf-23" edge="1">
          <mxGeometry relative="1" as="geometry" />
        </mxCell>
        <mxCell id="V1lYzwCrkhVgtF4k7L0C-0" value="" style="whiteSpace=wrap;html=1;strokeWidth=2;rounded=1;arcSize=12;" parent="WIyWlLk6GJQsqaUBKTNV-1" vertex="1">
          <mxGeometry x="232" y="1109" width="190" height="81" as="geometry" />
        </mxCell>
        <mxCell id="V1lYzwCrkhVgtF4k7L0C-3" value="nilai yang anda input : &lt;b&gt;nilai&lt;/b&gt;&lt;div&gt;grade : &lt;b&gt;huruf&lt;/b&gt;&lt;/div&gt;" style="text;strokeColor=none;align=center;fillColor=none;html=1;verticalAlign=middle;whiteSpace=wrap;rounded=0;" parent="WIyWlLk6GJQsqaUBKTNV-1" vertex="1">
          <mxGeometry x="257" y="1134.5" width="147" height="30" as="geometry" />
        </mxCell>
        <mxCell id="V1lYzwCrkhVgtF4k7L0C-6" value="" style="edgeStyle=none;orthogonalLoop=1;jettySize=auto;html=1;rounded=0;" parent="WIyWlLk6GJQsqaUBKTNV-1" edge="1">
          <mxGeometry width="100" relative="1" as="geometry">
            <mxPoint x="747" y="1149.39" as="sourcePoint" />
            <mxPoint x="429" y="1149.51" as="targetPoint" />
            <Array as="points" />
          </mxGeometry>
        </mxCell>
      </root>
    </mxGraphModel>
  </diagram>
</mxfile>
